<mxfile host="app.diagrams.net" agent="Mozilla/5.0 (Windows NT 10.0; Win64; x64) AppleWebKit/537.36 (KHTML, like Gecko) Chrome/137.0.0.0 Safari/537.36" version="27.2.0">
  <diagram name="Página-1" id="t8zSqm3cLhHdrZZvyXSp">
    <mxGraphModel dx="1426" dy="743" grid="1" gridSize="10" guides="1" tooltips="1" connect="1" arrows="1" fold="1" page="1" pageScale="1" pageWidth="827" pageHeight="1169" math="0" shadow="0">
      <root>
        <mxCell id="0" />
        <mxCell id="1" parent="0" />
        <mxCell id="zx6vSUFyw_uqjsa5RNkz-1" value="Sistema TFG: Pipeline de Vídeo  " style="whiteSpace=wrap;strokeWidth=2;fillColor=#bac8d3;strokeColor=#23445d;verticalAlign=top;align=right;fontSize=14;fontColor=light-dark(#23445D,#0FD284);fontStyle=1" vertex="1" parent="1">
          <mxGeometry x="303" y="39" width="472" height="557" as="geometry" />
        </mxCell>
        <mxCell id="zx6vSUFyw_uqjsa5RNkz-2" value="Actores Externos" style="whiteSpace=wrap;strokeWidth=2;fillColor=#bac8d3;strokeColor=#23445d;fontColor=light-dark(#23445D,#0FD284);fontSize=14;fontStyle=1" vertex="1" parent="1">
          <mxGeometry x="20" y="43" width="233" height="549" as="geometry" />
        </mxCell>
        <mxCell id="zx6vSUFyw_uqjsa5RNkz-3" value="Técnico" style="whiteSpace=wrap;strokeWidth=2;fillColor=#bac8d3;strokeColor=#23445d;" vertex="1" parent="1">
          <mxGeometry x="79" y="195" width="116" height="54" as="geometry" />
        </mxCell>
        <mxCell id="zx6vSUFyw_uqjsa5RNkz-4" value="Usuario/Paciente" style="whiteSpace=wrap;strokeWidth=2;fillColor=#bac8d3;strokeColor=#23445d;" vertex="1" parent="1">
          <mxGeometry x="45" y="399" width="183" height="54" as="geometry" />
        </mxCell>
        <mxCell id="zx6vSUFyw_uqjsa5RNkz-5" value="Terapeuta" style="whiteSpace=wrap;strokeWidth=2;fillColor=#bac8d3;strokeColor=#23445d;" vertex="1" parent="1">
          <mxGeometry x="71" y="503" width="132" height="54" as="geometry" />
        </mxCell>
        <mxCell id="zx6vSUFyw_uqjsa5RNkz-6" value="Desplegar Infraestructura&#xa;Jitsi y Spark" style="rounded=1;arcSize=20;strokeWidth=2;fillColor=#bac8d3;strokeColor=#23445d;" vertex="1" parent="1">
          <mxGeometry x="329" y="74" width="213" height="78" as="geometry" />
        </mxCell>
        <mxCell id="zx6vSUFyw_uqjsa5RNkz-7" value="Configurar Procesamiento&#xa;y Análisis" style="rounded=1;arcSize=20;strokeWidth=2;fillColor=#bac8d3;strokeColor=#23445d;" vertex="1" parent="1">
          <mxGeometry x="328" y="202" width="215" height="78" as="geometry" />
        </mxCell>
        <mxCell id="zx6vSUFyw_uqjsa5RNkz-8" value="Realizar y Grabar&#xa;Videoconferencia" style="rounded=1;arcSize=20;strokeWidth=2;fillColor=#bac8d3;strokeColor=#23445d;" vertex="1" parent="1">
          <mxGeometry x="358" y="458" width="154" height="78" as="geometry" />
        </mxCell>
        <mxCell id="zx6vSUFyw_uqjsa5RNkz-17" style="edgeStyle=orthogonalEdgeStyle;rounded=0;orthogonalLoop=1;jettySize=auto;html=1;exitX=0.5;exitY=0;exitDx=0;exitDy=0;entryX=1;entryY=0.5;entryDx=0;entryDy=0;fillColor=#bac8d3;strokeColor=light-dark(#23445D,#0FD284);strokeWidth=3;" edge="1" parent="1" source="zx6vSUFyw_uqjsa5RNkz-9" target="zx6vSUFyw_uqjsa5RNkz-10">
          <mxGeometry relative="1" as="geometry" />
        </mxCell>
        <mxCell id="zx6vSUFyw_uqjsa5RNkz-9" value="Procesar Vídeo&#xa;Automáticamente" style="rounded=1;arcSize=20;strokeWidth=2;fillColor=#bac8d3;strokeColor=#23445d;" vertex="1" parent="1">
          <mxGeometry x="593" y="458" width="158" height="78" as="geometry" />
        </mxCell>
        <mxCell id="zx6vSUFyw_uqjsa5RNkz-10" value="Verificar Resultados&#xa;y Vídeo Procesado" style="rounded=1;arcSize=20;strokeWidth=2;fillColor=#bac8d3;strokeColor=#23445d;" vertex="1" parent="1">
          <mxGeometry x="350" y="330" width="172" height="78" as="geometry" />
        </mxCell>
        <mxCell id="zx6vSUFyw_uqjsa5RNkz-11" value="" style="curved=1;startArrow=none;endArrow=block;exitX=0.71;exitY=0;entryX=0;entryY=0.5;rounded=0;fillColor=#bac8d3;strokeColor=light-dark(#23445D,#0FD284);strokeWidth=3;" edge="1" parent="1" source="zx6vSUFyw_uqjsa5RNkz-3" target="zx6vSUFyw_uqjsa5RNkz-6">
          <mxGeometry relative="1" as="geometry">
            <Array as="points">
              <mxPoint x="253" y="94" />
            </Array>
          </mxGeometry>
        </mxCell>
        <mxCell id="zx6vSUFyw_uqjsa5RNkz-12" value="" style="curved=1;startArrow=none;endArrow=block;exitX=1;exitY=0.5;entryX=0;entryY=0.5;rounded=0;fillColor=#bac8d3;strokeColor=light-dark(#23445D,#0FD284);strokeWidth=3;" edge="1" parent="1" source="zx6vSUFyw_uqjsa5RNkz-3" target="zx6vSUFyw_uqjsa5RNkz-7">
          <mxGeometry relative="1" as="geometry">
            <Array as="points" />
          </mxGeometry>
        </mxCell>
        <mxCell id="zx6vSUFyw_uqjsa5RNkz-13" value="" style="curved=1;startArrow=none;endArrow=block;exitX=0.71;exitY=1;entryX=0;entryY=0.5;rounded=0;fillColor=#bac8d3;strokeColor=light-dark(#23445D,#0FD284);strokeWidth=3;" edge="1" parent="1" source="zx6vSUFyw_uqjsa5RNkz-3" target="zx6vSUFyw_uqjsa5RNkz-10">
          <mxGeometry relative="1" as="geometry">
            <Array as="points">
              <mxPoint x="253" y="350" />
            </Array>
          </mxGeometry>
        </mxCell>
        <mxCell id="zx6vSUFyw_uqjsa5RNkz-14" value="" style="curved=1;startArrow=none;endArrow=block;exitX=1;exitY=0.5;entryX=0;entryY=0.11;rounded=0;fillColor=#bac8d3;strokeColor=light-dark(#23445D,#0FD284);strokeWidth=3;" edge="1" parent="1" source="zx6vSUFyw_uqjsa5RNkz-4" target="zx6vSUFyw_uqjsa5RNkz-8">
          <mxGeometry relative="1" as="geometry">
            <Array as="points">
              <mxPoint x="303" y="426" />
            </Array>
          </mxGeometry>
        </mxCell>
        <mxCell id="zx6vSUFyw_uqjsa5RNkz-15" value="" style="curved=1;startArrow=none;endArrow=block;exitX=1;exitY=0.5;entryX=0;entryY=0.89;rounded=0;fillColor=#bac8d3;strokeColor=light-dark(#23445D,#0FD284);strokeWidth=3;" edge="1" parent="1" source="zx6vSUFyw_uqjsa5RNkz-5" target="zx6vSUFyw_uqjsa5RNkz-8">
          <mxGeometry relative="1" as="geometry">
            <Array as="points">
              <mxPoint x="303" y="530" />
            </Array>
          </mxGeometry>
        </mxCell>
        <mxCell id="zx6vSUFyw_uqjsa5RNkz-16" value="" style="curved=1;startArrow=none;endArrow=block;exitX=1.01;exitY=0.5;entryX=0;entryY=0.5;rounded=0;fillColor=#bac8d3;strokeColor=light-dark(#23445D,#0FD284);strokeWidth=3;" edge="1" parent="1" source="zx6vSUFyw_uqjsa5RNkz-8" target="zx6vSUFyw_uqjsa5RNkz-9">
          <mxGeometry relative="1" as="geometry">
            <Array as="points" />
          </mxGeometry>
        </mxCell>
      </root>
    </mxGraphModel>
  </diagram>
</mxfile>
